<?xml version="1.0" encoding="UTF-8"?><svg width="41px" height="48px" viewBox="0 0 41 48" xmlns="http://www.w3.org/2000/svg" xmlns:xlink="http://www.w3.org/1999/xlink"><g fill="none" fill-rule="evenodd"><circle cx="26" cy="26" r="26" fill="none" fill-opacity="0" transform="translate(-6 -2)"/><path d="M10.901888 5.038464c.791808-.987904 1.10144-2.521984.75328-3.730688-.156544-.543488.157184-1.110912.700544-1.267456.543488-.156544 1.110912.157056 1.267456.700544.529536 1.837824.07808 4.079616-1.1232 5.578496-1.094272 1.365248-1.378944 3.768064-.12224 4.940544.41344.385792.435968 1.033728.050304 1.447296-.2016.216192-.475008.325504-.749056.325504-.250112 0-.500864-.091136-.69824-.2752-2.144768-2.000768-1.772288-5.606528-.078848-7.71904zm6.731136 1.188992h6.734592c.565504 0 1.024-.458496 1.024-1.024s-.458496-1.024-1.024-1.024h-6.734592c-.565504 0-1.024.458496-1.024 1.024s.458496 1.024 1.024 1.024zm22.834304 9.80352v8.197504c0 4.09408-3.070976 7.484544-7.030144 7.989376v9.145472h1.021824c.565504 0 1.024.458496 1.024 1.024v4.548224c0 .565504-.458496 1.024-1.024 1.024H1.092096c-.565504 0-1.024-.458496-1.024-1.024V42.3872c0-.565504.458496-1.024 1.024-1.024h.85056c-.402432-8.83072.466688-18.753664 3.959168-22.04864l-5.63712-7.728384c-.127744-.175232-.196608-.38656-.196608-.603392V9.000832c0-.271616.107904-.532096.299904-.724096.192128-.192.45248-.299904.724096-.299904l4.238848.000128c.186112-1.08224.638208-2.1184 1.295616-2.938496.791808-.987904 1.10144-2.521984.753024-3.73056C7.222912.764544 7.53664.196992 8.08.04032c.543488-.156672 1.11104.156928 1.267456.700288.52992 1.837696.078464 4.079616-1.122816 5.578624-.55552.692992-.9024 1.653632-.944768 2.584832.002944.031872.00448.064128.00448.096896 0 .04544-.002944.090368-.008704.134272.007936.819584.261248 1.5968.82688 2.124672.41344.38592.43584 1.033856.050048 1.447296-.385792.41344-1.0336.436096-1.447296.050048-.744064-.6944-1.223552-1.641088-1.396736-2.732288h-3.19232v.624128l6.027264 8.263552c.01664.022272.03264.045312.047744.069248.065152.102784.109824.213376.134912.326656.033024.148864.031488.301056-.001024.445696-.000128 0-.000128.000128-.000128.000128-.000128.000512-.000256.001024-.000384.001664-.033152.14656-.098432.286336-.194176.40768-.070912.089856-.157824.169216-.259456.23296-.023296.01472-.046976.028416-.071168.04096-1.254656.68736-2.371968 3.13728-3.067008 6.7264-.741632 3.82976-.996608 8.732544-.739968 14.199424h27.39648V31.258752c0-.565504.458496-1.024 1.024-1.024 3.311744 0 6.006144-2.694272 6.006144-6.006016v-8.197504c0-3.311872-2.6944-6.006144-6.006144-6.006144h-7.02144v22.16896c0 1.78688-1.453952 3.240704-3.241088 3.240704-1.787392 0-3.24096-1.453824-3.24096-3.240704V13.057024c0-.565504.458496-1.024 1.024-1.024s1.024.458496 1.024 1.024v19.136768c0 .657664.53504 1.192704 1.192448 1.192704.658432 0 1.1936-.53504 1.1936-1.192704v-22.16896l-8.840448.000128v-2.048l17.910016-.000128c4.440704 0 8.053888 3.613056 8.053888 8.054144zM33.435136 43.4112H2.116096v2.500224h31.31904V43.4112zm-1.021952-17.07712c.565504 0 1.024-.458496 1.024-1.024V14.94912c0-.565504-.458496-1.024-1.024-1.024s-1.024.458496-1.024 1.024v10.36096c0 .565632.458496 1.024 1.024 1.024z" fill="#333" fill-rule="nonzero"/></g></svg>