<?xml version="1.0" encoding="UTF-8"?><svg width="53px" height="52px" viewBox="0 0 53 52" xmlns="http://www.w3.org/2000/svg" xmlns:xlink="http://www.w3.org/1999/xlink"><g fill="none" fill-rule="evenodd"><rect fill-opacity="0.4" fill="#D8D8D8" width="53" height="52" rx="26"/><path d="M11.6517648 24.0134117l10.0103057-9.0092752c.8210201-.738918 2.0855998-.6723612 2.8245178.1486588.3305245.3672495.5134117.843846.5134117 1.3379295v18.0185504c0 1.1045695-.8954305 2-2 2-.4940836 0-.97068-.1828872-1.3379295-.5134117l-10.0103057-9.0092752c-.8210201-.738918-.8875769-2.0034977-.1486589-2.8245178a1.9999975 1.9999975 0 01.1486589-.1486588z" fill="#8C8B8B"/><path d="M24.6517648 24.0134117l10.0103057-9.0092752c.8210201-.738918 2.0855998-.6723612 2.8245178.1486588.3305245.3672495.5134117.843846.5134117 1.3379295v18.0185504c0 1.1045695-.8954305 2-2 2-.4940836 0-.97068-.1828872-1.3379295-.5134117l-10.0103057-9.0092752c-.8210201-.738918-.8875769-2.0034977-.1486589-2.8245178a1.9999975 1.9999975 0 01.1486589-.1486588z" fill="#8C8B8B"/></g></svg>