<?xml version="1.0" encoding="UTF-8"?><svg width="48" height="41" xmlns="http://www.w3.org/2000/svg"><g fill="none" fill-rule="evenodd"><path d="M-71-251h748V959H-71z"/><g transform="translate(-2 -6)"><circle fill="none" cx="26" cy="26" r="26"/><g transform="translate(2 6)" fill="#FFF" fill-rule="nonzero"><path d="M36 13.0624687c0-.5527499-.4472812-1.0000312-1.0000312-1.0000312H4.99996875c-.55275 0-1.00003125.4472812-1.00003125 1.0000312V17.0625c0 .55275.44728125 1.0000312 1.00003125 1.0000312H34.9999688C35.5527188 18.0625312 36 17.61525 36 17.0625v-4.0000313zm-1.9999688 3.0000001H6V14.0625h28.0000312v1.9999688zM4.99996875 8.0625H27c.55275 0 1.0000313-.44728125 1.0000313-1.00003125 0-.55275-.4472813-1.00003125-1.0000313-1.00003125H4.99996875c-.55275 0-1.00003125.44728125-1.00003125 1.00003125.00009375.55275.447375 1.00003125 1.00003125 1.00003125z"/><circle cx="34.0000312" cy="6.06253125" r="1.99996875"/><path d="M28.0000313 25.0624688c0-.55275-.4472813-1.0000313-1.0000313-1.0000313-.55275 0-1.0000312.4472813-1.0000312 1.0000313 0 1.8027187.6474375 2.7744375 1.1679375 3.5547187.4648125.6973125.8320312 1.2480938.8320312 2.4452813 0 .55275.4472813 1.0000312 1.0000313 1.0000312.55275 0 1.0000312-.4472813 1.0000312-1.0000312 0-1.8027188-.6474375-2.7744376-1.1679375-3.5547188-.4649062-.6972187-.8320312-1.248-.8320312-2.4452812zM10.9999688 24.0625312c-.5527501 0-1.0000313.4472813-1.0000313 1.0000313 0 1.1972812-.36721875 1.7480625-.83203125 2.4452812-.5205.7802813-1.1679375 1.752-1.1679375 3.5547188 0 .5526562.44728125.9999375 1.00003125.9999375.55275 0 1.0000312-.4472813 1.0000312-1.0000313 0-1.1972812.3672188-1.7480625.8320313-2.4452812.5205-.7802813 1.1679375-1.752 1.1679375-3.5547188 0-.5526562-.4472812-.9999375-1.0000312-.9999375zM19.0000312 24.0625312c-.55275 0-1.0000312.4472813-1.0000312 1.0000313v6c0 .55275.4472812 1.0000312 1.0000312 1.0000312.55275 0 1.0000313-.4472812 1.0000313-1.0000312v-6c-.0000938-.55275-.4472813-1.0000313-1.0000313-1.0000313zM42 24.0625312h-1.0000312V23.0625c0-.55275-.4472813-1.0000312-1.0000313-1.0000312-.55275 0-.9999375.4472812-.9999375 1.0000312v1.0000312h-1.0000312c-.5527501 0-1.0000313.4472813-1.0000313 1.0000313 0 .55275.4472813 1.0000312 1.0000313 1.0000312H39v1.0000313c0 .55275.4472813 1.0000312 1.0000312 1.0000312.55275 0 1.0000313-.4472812 1.0000313-1.0000312V26.0625H42c.55275 0 1.0000312-.4472813 1.0000312-1.0000312 0-.5526563-.4472812-.9999376-1.0000312-.9999376zM42 32.0625h-4.0000312c-.5527501 0-1.0000313.4472813-1.0000313 1.0000312 0 .55275.4472813 1.0000313 1.0000313 1.0000313H42c.55275 0 1.0000312-.4472813 1.0000312-1.0000313 0-.5527499-.4472812-1.0000312-1.0000312-1.0000312z"/><path d="M43.9999688 18.0625312h-4.0000313V4.06246875c0-2.20603125-1.7939062-4.00003125-4.0000312-4.00003125H4.00003125C1.79390625.06253125 0 1.8564375 0 4.06246875V18.0624375c0 2.2060312 1.79390625 4.0000312 4.00003125 4.0000312H32.0000625V32.0625c0 4.411125 3.5888437 7.9999687 7.9999687 7.9999687S48 36.473625 48 32.0625V22.0624688c0-2.2060313-1.7939062-3.9999376-4.0000312-3.9999376zM32.5562812 20.0625H4.00003125c-1.1025 0-1.99996875-.8974688-1.99996875-1.9999688V4.06246875C1.99996875 2.95996875 2.8974375 2.0625 4.00003125 2.0625H36c1.1025 0 1.9999688.89746875 1.9999688 1.99996875V18.0624375H36c-1.4742187.0000937-2.7499688.8102813-3.4437188 2.0000625zm13.44375 12c0 3.308625-2.691375 6-6 6s-6-2.691375-6-6V22.0624688c0-1.1025.8974688-1.9999688 1.9999688-1.9999688h7.9999688c1.1024999 0 1.9999687.8974687 1.9999687 1.9999687V32.0625h.0000937z"/></g></g></g></svg>