<?xml version="1.0" encoding="UTF-8"?><svg width="48px" height="25px" viewBox="0 0 48 25" xmlns="http://www.w3.org/2000/svg" xmlns:xlink="http://www.w3.org/1999/xlink"><g fill="none" fill-rule="evenodd"><circle cx="26" cy="26" r="26" fill="none" fill-opacity="0" transform="translate(-2 -14)"/><g fill="#333" fill-rule="nonzero"><path d="M42.7368421 0H10.2051809C7.29975326.00328947 4.94531253 2.35773032 4.94202305 5.26315789v.86636516H3.15789474C1.41447368 6.13157895.00205592 7.54440789 0 9.28741779v5.53042761c.00205592 1.7430099 1.41447368 3.1558388 3.15789474 3.1578947h1.78412831v.8663652c.00328948 2.9054275 2.35773021 5.2598684 5.26315785 5.2631579h32.5316612C45.6422697 24.1019737 47.9967105 21.7475328 48 18.8421053V5.26315789C47.9967105 2.35773032 45.6422697.00328947 42.7368421 0zM3.15789474 15.8704769c-.58100327-.0008223-1.05180927-.4716283-1.05263158-1.0526315V9.28741779c.00082231-.58100326.47162831-1.05180926 1.05263158-1.05263158h1.78412831v7.63569069H3.15789474zm42.73684206 2.9716284C45.8926809 20.5855263 44.4802632 21.9979441 42.7368421 22H10.2051809c-1.74342101-.0020559-3.15583879-1.4144737-3.15789469-3.1578947V5.26315789c.0020559-1.74342105 1.41447368-3.15583884 3.15789469-3.15789473h32.5316612c1.7434211.00205589 3.1558388 1.41447368 3.1578947 3.15789473V18.8421053z"/><path d="M19.6085526 11h-1.8433388V9.15666116c0-.58141442-.4712171-1.05263158-1.0526316-1.05263158-.5814144 0-1.0526316.47121716-1.0526316 1.05263158V11h-1.8433388c-.5814144 0-1.0526316.4712171-1.0526316 1.0526316s.4712172 1.0526316 1.0526316 1.0526316h1.8433388v1.8433388c0 .5814144.4712172 1.0526316 1.0526316 1.0526316.5814145 0 1.0526316-.4712172 1.0526316-1.0526316v-1.8433388h1.8433388c.5814146 0 1.0526316-.4712171 1.0526316-1.0526316S20.1899672 11 19.6085526 11zM38.5612664 8.10402958c-.5814144 0-1.0526316.47121716-1.0526316 1.05263158V14.948602c0 .5814144.4712172 1.0526316 1.0526316 1.0526316.5814145 0 1.0526316-.4712172 1.0526316-1.0526316V9.15666116c0-.58141442-.4712171-1.05263158-1.0526316-1.05263158z"/></g></g></svg>