<?xml version="1.0" encoding="UTF-8"?><svg width="48" height="36" xmlns="http://www.w3.org/2000/svg"><g fill="none" fill-rule="evenodd"><path d="M-171-253h748V957h-748z"/><g transform="translate(-2 -8)"><circle fill="none" cx="26" cy="26" r="26"/><g transform="translate(2 8)" fill="#FFF" fill-rule="nonzero"><path d="M24 25.9999688c3.308625 0 6-2.691375 6-6s-2.691375-6-6-6-6 2.691375-6 6 2.691375 6 6 6zm0-9.9999376c2.2060312 0 4.0000313 1.7939063 4.0000313 4.0000313S26.2060312 24 24 24c-2.2060313 0-4.0000312-1.7939062-4.0000312-4.0000313 0-2.206125 1.7939999-3.9999375 4.0000312-3.9999375z"/><path d="M22.9999688 21C23.5527188 21 24 20.5527187 24 19.9999687c.55275 0 1.0000312-.4472812 1.0000312-1.0000312 0-.55275-.4472812-1.0000313-1.0000312-1.0000313-1.1025 0-1.9999688.8974688-1.9999688 1.9999688 1e-7.5528437.4472813 1.000125.9999376 1.000125z"/><path d="M46.9999688 0H1.00003125C.44728125 0 0 .44728125 0 1.00003125V8.0000625C0 10.2060938 1.79390625 12 4.00003125 12v4.0000312C4.00003125 27.0283125 12.9717188 36 24 36s19.9999687-8.9716875 19.9999687-19.9999688V12C46.2060938 12 48 10.2060938 48 7.99996875v-6.9999375C48 .44728125 47.5527187 0 46.9999688 0zM42 16.0000313c0 9.9248437-8.0751562 18-18 18s-18-8.0751563-18-18V12h12.061875c-2.4504375 1.8244688-4.0619062 4.7174063-4.0619062 7.9999688C13.9999688 25.5136875 18.486375 30 24 30s10.0000313-4.4863125 10.0000313-10.0000312c0-3.2825626-1.6114688-6.1755001-4.0619063-7.9999688H42v4.0000313zM24 12c4.411125 0 7.9999688 3.5888437 7.9999688 7.9999687S28.411125 27.9999375 24 27.9999375s-7.9999688-3.5888438-7.9999688-7.9999688C16.0000313 15.5888437 19.588875 12 24 12zm22.0000312-4.00003125c0 1.1025-.8974687 1.99996875-1.9999687 1.99996875H4.00003125c-1.1025 0-1.99996875-.89746875-1.99996875-1.99996875v-6h43.9999688l-1e-7 6z"/><circle cx="37.0000312" cy="15" r="1.00003125"/></g></g></g></svg>