<?xml version="1.0" encoding="UTF-8"?><svg width="39" height="48" xmlns="http://www.w3.org/2000/svg"><g transform="translate(-7 -2)" fill="none" fill-rule="evenodd"><circle fill="none" cx="26" cy="26" r="26"/><g fill="#333" fill-rule="nonzero"><path d="M36.6 7.6H35c-.4416 0-.8.3576-.8.8 0 .4424.3584.8.8.8h1.6c.4416 0 .8-.3576.8-.8 0-.4424-.3584-.8-.8-.8zM13.4 19.6H11v11.2h9.6V19.6H13.4zm3.2 1.6v2.4H15v-2.4h1.6zm2.4 0v8h-6.4v-8h.8v4h4.8v-4h.8zM23 18c-.4416 0-.8.3576-.8.8v12.8c0 .4424.3584.8.8.8.4416 0 .8-.3576.8-.8V18.8c0-.4424-.3584-.8-.8-.8zM29.4 18c-.4416 0-.8.3576-.8.8v12.8c0 .4424.3584.8.8.8.4416 0 .8-.3576.8-.8V18.8c0-.4424-.3584-.8-.8-.8zM19 38c0 .4424.3584.8.8.8h12.8c.4416 0 .8-.3576.8-.8 0-.4424-.3584-.8-.8-.8H19.8c-.4416 0-.8.3576-.8.8z"/><path d="M43.664 2H8.736C7.7792 2 7 2.7792 7 3.736v43.92C7 48.9488 8.0512 50 9.344 50h33.712c1.292 0 2.344-1.0512 2.344-2.344V3.736C45.4 2.7792 44.6208 2 43.664 2zM8.6 3.736c0-.0752.0608-.136.136-.136H25.4V34H8.6V3.736zm35.2 43.92c0 .4104-.3336.744-.744.744H9.344c-.4104 0-.744-.3336-.744-.744V35.6h35.2v12.056zM27 34V3.6h16.664c.0752 0 .136.0608.136.136V34H27z"/></g></g></svg>