<?xml version="1.0" encoding="UTF-8"?><svg width="40px" height="48px" viewBox="0 0 40 48" xmlns="http://www.w3.org/2000/svg" xmlns:xlink="http://www.w3.org/1999/xlink"><g transform="translate(-6 -2)" fill="none" fill-rule="evenodd"><circle fill="none" cx="26" cy="26" r="26"/><g fill="#333" fill-rule="nonzero"><path d="M18.3031656 30.4217423c.6505031-.9806135.9708957-2.0448589.9471902-3.0939386V6.44780368c.9240736 1.0169816 2.0769571 2.0771043 3.2731289 2.6564908 2.1301104 1.03185276 2.248638 2.6310184 2.184 4.31734972-.0033865.089227-.0066258.1735951-.0089816.2525153-.0173743.6095706.462773 1.1179877 1.0723435 1.135362.0107485.0002945.0213497.0004417.0320982.0004417.5952883 0 1.086184-.4739632 1.1032638-1.0727853.0020613-.0721472.0050061-.1493006.0080981-.2310184.0531534-1.3892024.1777178-4.64260122-3.4281717-6.38944784-1.7888098-.86650307-3.7943559-3.52019632-4.4161473-4.4695951-.0011779-.00176687-.002503-.00323926-.003681-.00515337-.0131042-.0198773-.0276809-.03872393-.0419631-.0577178-.0080982-.01060122-.0156074-.0217914-.0241473-.03224539-.010454-.01280982-.0220859-.02458896-.0331288-.03695705-.0786258-.08790185-.1688835-.16093252-.2673865-.21791412-.0095706-.00559509-.0185522-.01192638-.02827-.01707975-.0082454-.00441718-.0167852-.00780368-.0250306-.01207362-.1026258-.05226994-.2145276-.08863804-.3327608-.10674847-.0164908-.0026503-.0329816-.00588957-.0497668-.00765644-.0132516-.00147239-.0267976-.00161963-.0401964-.0026503-.0237055-.00161964-.047411-.0033865-.0712638-.00353375-.0020613 0-.0041227-.00029447-.0063313-.00029447-.0101595 0-.0200245.00132515-.030184.00147239-.024589.00058895-.0491779.00147239-.0736196.00368098-.0142822.00132515-.0281227.00368098-.0421105.0055951-.0216441.00294478-.0434355.00574232-.0650797.00986502-.0161963.00323927-.0319509.00721473-.048.01104295-.0188466.00456441-.037546.0089816-.0560982.01457668-.0182576.00544786-.0360736.01192638-.0538895.01825767-.0157546.0055951-.0316565.0108957-.0472638.017227-.0203191.0082454-.0399019.0176687-.0594847.02709202-.0128098.00618405-.0257669.01177914-.0384295.0184049-.0217914.01148467-.0426993.02429449-.0636073.0371043-.0086871.00544786-.0175215.0097178-.0260614.01531289-.0017668.00117791-.0033865.0026503-.0053006.00382822-.0198773.01325153-.0388712.02768098-.057865.04211043-.0106012.00809816-.0217914.01560736-.0320982.024-.0131043.01074846-.0254724.02267484-.0381349.0341595-.0889326.07965645-.1625522.17123927-.219681.2710675-.0045644.00795091-.0098651.01560735-.0142822.02370551-.0044172.00809816-.0078037.01663804-.0120737.02488344-.0521227.1020368-.0883435.21320245-.1064539.33055214-.0027976.01752148-.0061841.03474847-.007951.05226994-.0013251.01280982-.0016196.02591411-.002503.03887117-.0017669.02414724-.0033865.04844172-.003681.0727362 0 .00206135-.0002945.00412269-.0002945.00618404V23.3866503c-.9948957-.6680245-2.25879754-1.0467239-3.65712882-1.0467239-.80039264 0-1.60417178.1272147-2.3891043.3779632-3.4957546 1.1172515-5.5811043 4.3993619-4.64893251 7.316319.70704294 2.2127116 2.92122699 3.6425521 5.64103067 3.6425521.80039264 0 1.60417178-.1272147 2.3891043-.3779632 1.65069936-.5269693 3.04520246-1.548957 3.92628216-2.8770552zm-1.8403435-1.2210552c-.60456443.9112638-1.58414725 1.6196319-2.75823314 1.9947976-.56731289.1812515-1.14493252.2731288-1.71695706.2731288-1.73992638 0-3.12839264-.8267485-3.53727607-2.1062577-.56157055-1.7571533.88181595-3.7939141 3.21747239-4.5402699.56731288-.1812515 1.14493252-.2731288 1.71680982-.2731288 1.74007362 0 3.12853986.8267484 3.53742326 2.1064049.257816.8065767.0946749 1.7104785-.4592392 2.5453251zM45.7412025 36.4938896V16.9305031v-4.1511166c0-.0019141-.0002945-.003681-.0002945-.0055951-.0001473-.0275337-.0019141-.0550675-.0041227-.0826012-.0007362-.0095706-.0008835-.0194356-.0019141-.0290062-.0025031-.0223803-.0064786-.0446134-.0101595-.0668466-.0025031-.0147239-.00427-.0295951-.007362-.0441718-.003092-.0141349-.007362-.0282699-.0108957-.0422576-.0055951-.0222332-.011043-.0446135-.0179632-.0664049-.0027975-.0086871-.0064785-.0173743-.0094233-.0260614-.0092761-.026503-.0188466-.0527116-.0300368-.0783313-.0007362-.0017668-.0011779-.0033865-.0019141-.0051533-.0035338-.007951-.0078037-.0151657-.0114847-.0228221-.0110429-.0235583-.0222331-.0466749-.0348957-.0692025-.0075092-.013546-.0159018-.0263558-.024-.0393129-.010454-.0169325-.0207607-.0340122-.0320982-.0503558-.0110429-.0160491-.0229693-.031362-.0348957-.0466748-.0095705-.0123681-.0189938-.0250307-.0290061-.0368099-.0138405-.0164908-.0284172-.0319509-.0431411-.047411-.0097178-.0101595-.0191411-.0206135-.0291534-.03033129-.0153129-.01487117-.0310675-.0288589-.0469693-.04269939-.0111902-.00971779-.0222331-.01958282-.0337178-.02871165-.0151656-.01222086-.0309202-.02355829-.0466748-.03489571-.0136933-.00986503-.0273865-.01973006-.0415215-.02900613-.0142822-.00927608-.0288589-.01781595-.0435828-.02650307-.0166381-.00971779-.0332761-.01943558-.0505031-.02841718-.0132515-.00677301-.0267976-.01295705-.0401963-.01928834-.0189939-.00883436-.0379878-.01766871-.0575706-.0254724-.0133988-.00544785-.0269448-.01001227-.0404908-.01487116-.01973-.00692025-.0394601-.01398773-.0596319-.0198773-.0156073-.00456442-.0313619-.0082454-.0471165-.01207362-.0182577-.00441718-.0363681-.00912884-.0550675-.01266258-.020319-.00382822-.0407853-.00662576-.0613988-.00942331-.0144294-.00191411-.0287117-.00426994-.0432883-.00574233-.0269448-.00250307-.0538896-.00338651-.0809816-.00397546-.0076565-.00014724-.0150184-.00117792-.0225276-.00117792-.0016197 0-.0030921.00014724-.0048589.00029448-.0291534.00014724-.058454.00191411-.0877546.00441718-.007951.00058896-.0160491.0007362-.024.00161963-.0241473.00250307-.0481473.00677301-.0721473.01104295-.012957.00220859-.0260613.00382822-.0388711.00647852-.0156074.00323927-.0310675.00795092-.0466749.01192638-.020908.00544786-.0419632.01030675-.0622822.01693252-.0094233.00309202-.0188466.00706748-.0282699.01030675-.0259142.00912883-.0515338.01840491-.0765645.02930061-.0016196.0007362-.0033865.00117792-.0051533.00191411L28.4545767 18.7241718c-.0019141.0007362-.0038282.0017669-.0058896.002503l-.0126626.0055951c-.0079509.0035338-.0151656.007951-.0229693.0116319-.023411.011043-.0466748.0222332-.0692024.0347485-.0135461.0076564-.0265031.0159018-.0396074.024-.0167853.010454-.0337178.0206135-.0500614.0318037-.0161963.0113374-.0316564.0232638-.0471165.0353374-.0122209.0094233-.0244417.0186994-.0363681.0285644-.0166381.0139878-.0322454.0287117-.0478528.0434356-.0100122.0095706-.020319.0189939-.0300368.0288589-.0148711.0153129-.0290061.0312147-.0428466.0471166-.0097178.0111902-.0194356.0220859-.0287117.0337178-.0120736.0153128-.0235582.030773-.0347484.0465276-.0098651.0136932-.0197301.0275337-.0290062.0416687-.009276.014135-.0176687.0285644-.0262086.0429938-.009865.0169326-.01973.0337178-.0287116.0512393-.006773.0129571-.0128098.0260614-.0188466.0393129-.0091289.0194356-.0179632.0387239-.0260614.0587485-.0051534.0128098-.0095705.0257668-.014135.0387239-.0073619.0204662-.0144294.040638-.0206135.0616932-.0042699.014724-.0078036.0297424-.0114846.0446135-.0047117.0191411-.0095706.0382822-.0132516.0577178-.0036809.0191411-.006184.0384295-.0088343.0577178-.0022086.0157546-.0047117.0312147-.0061841.0471166-.0023558.0251779-.0032392.0506503-.0038282.0761227-.0001472.0089816-.0013251.0176687-.0013251.0266503v19.9367853c-.9929816-.662724-2.252319-1.0383313-3.6447608-1.0383313-.8003926 0-1.6041717.1272147-2.3891043.3779632-1.6508466.5275582-3.0452024 1.5493987-3.9262822 2.8776441-.9318773 1.4045154-1.1885153 2.9810062-.7226503 4.4386749.707043 2.2127116 2.921227 3.6425521 5.6410307 3.6425521.8003926 0 1.6041718-.1272147 2.3891043-.3779632 1.6506994-.5275582 3.0452024-1.5493987 3.9262822-2.8774969.7038037-1.0608589 1.0216933-2.2194847.9349693-3.3511656V24.6271411l13.5460123-5.9868957v14.1619141c-.9931288-.6627239-2.252319-1.0384785-3.644908-1.0384785-.8003926 0-1.6041718.1272147-2.3891043.3779632-3.4957546 1.1172515-5.5811043 4.3993619-4.6489325 7.316319.707043 2.2127116 2.921227 3.6425521 5.6410307 3.6425521.8003926 0 1.6041718-.1272147 2.3891043-.3779632 1.6506994-.5275582 3.0452024-1.5493987 3.9264294-2.8776441.7038037-1.0605644 1.0218405-2.2193374.9349694-3.3510184zm-21.288 11.0021595c-.5673129.1812515-1.1449326.2731288-1.7169571.2731288-1.7399264 0-3.1283926-.8267485-3.5372761-2.1062577-.2576687-.8065766-.0946748-1.7106257.4592393-2.5454723.6045644-.9111166 1.5841472-1.6196319 2.7582331-1.9947976.5673129-.1812515 1.1449325-.2731288 1.7168098-.2731288 1.7399264 0 3.1283927.8267484 3.5372761 2.1064049.0559509.1750675.0908466.3551411.1074847.5377178v.4174233c0 .0120736.0014724.0237055.0017668.0357791-.0424049.5188712-.2333742 1.049227-.5684908 1.5544049-.6045644.9111166-1.584 1.6194847-2.7580858 1.9947976zm5.5333987-25.2836319v-1.7509693l13.5460123-5.9867485v1.7508221l-13.5460123 5.9868957zm10.2212025 18.4065276c-.5673129.1812515-1.1449325.2731288-1.7169571.2731288-1.7399264 0-3.1283926-.8267484-3.537276-2.1062576-.5615706-1.7571534.8818159-3.7939142 3.2174723-4.54027.5673129-.1812515 1.1449326-.2731288 1.7168099-.2731288 1.7400736 0 3.1285398.8267484 3.5374233 2.1064049.0559509.1750675.0908466.3551411.1074846.5377178v.2270429c0 .0434356.0030921.0862822.0080982.1283927-.0248834.5496441-.2185031 1.1151901-.5746749 1.6521717-.6048588.9111166-1.5842944 1.6194847-2.7583803 1.9947976z"/></g></g></svg>