<?xml version="1.0" encoding="UTF-8"?><svg width="48px" height="29px" viewBox="0 0 48 29" xmlns="http://www.w3.org/2000/svg" xmlns:xlink="http://www.w3.org/1999/xlink"><g transform="translate(-2 -12)" fill="none" fill-rule="evenodd"><circle fill="none" cx="26" cy="26" r="26"/><g transform="translate(2 12)" fill="#333" fill-rule="nonzero"><path d="M24 .06253125C11.6630625.06253125 0 5.40825 0 11.0625c0 10.766625 3.92671875 16.9999687 24 16.9999687 20.0732813 0 24-6.2333437 24-16.9999687C48 5.40825 36.3369375.06253125 24 .06253125zM24 2.0625c12.7617188 0 22.0000313 5.376 22.0000313 9 0 3.3809062-8.839875 7.0000312-22.0000313 7.0000312-13.1601562 0-22.00003125-3.619125-22.00003125-7.0000312 0-3.624 9.23831255-9 22.00003125-9zm0 24c-15.72159375 0-20.59715625-3.8221875-21.7100625-10.9407188C6.34303125 18.3752813 15.20325 20.0625 24 20.0625s17.6569688-1.6872187 21.7100625-4.9407188C44.5971562 22.2403125 39.7215938 26.0625 24 26.0625z"/><circle cx="18" cy="5.0625" r="1.00003125"/><circle cx="22.0000312" cy="5.0625" r="1.00003125"/><circle cx="25.9999688" cy="5.0625" r="1.00003125"/><circle cx="30" cy="5.0625" r="1.00003125"/><path d="M22.0000312 23.0625c0 .55275.4472813 1.0000312 1.0000313 1.0000312h1.9999687c.55275 0 1.0000313-.4472812 1.0000313-1.0000312 0-.55275-.4472813-1.0000312-1.0000313-1.0000312h-1.9999687c-.55275 0-1.0000313.4472812-1.0000313 1.0000312z"/></g></g></svg>