<?xml version="1.0" encoding="UTF-8"?><svg width="48px" height="46px" viewBox="0 0 48 46" xmlns="http://www.w3.org/2000/svg" xmlns:xlink="http://www.w3.org/1999/xlink"><g fill="none" fill-rule="evenodd"><circle cx="26" cy="26" r="26" fill="none" fill-opacity="0" transform="translate(-2 -3)"/><g fill="#333" fill-rule="nonzero"><path d="M42.593402 22.4160635H15.4021437V10.5826838c1.7196547-.61177625 2.7072662-2.4166203 2.2951002-4.19473839-.4117484-1.77853556-2.0921493-2.96533962-3.9057629-2.75863024-1.8140312.20670928-3.1841592 1.74095209-3.1854119 3.56667592.0020879 1.62235521 1.0911748 3.04259471 2.6579899 3.46520041v11.754872H6.80679287c-2.95030621.0033408-5.34187082 2.3944877-5.34521158 5.3452116v10.9618596c0 .5900613.4789811 1.0690423 1.06904232 1.0690423h3.46561806v4.4966593c0 .5900613.47898099 1.0690423 1.06904232 1.0690423H41.8308742c.5900612 0 1.0690423-.478981 1.0690423-1.0690423V39.792177h3.9692372c.5904788 0 1.0690423-.478981 1.0690423-1.0690423V27.7612751c-.0033408-2.9507239-2.3940701-5.3418708-5.344794-5.3452116zM12.7441537 7.19599109c0-.8009466.6493596-1.45030621 1.4503062-1.45030621.8009465 0 1.4498887.64935961 1.4498887 1.45030621s-.6489422 1.45030621-1.4498887 1.45030621c-.800529-.0012527-1.449471-.64977728-1.4503062-1.45030621zM40.7618319 43.219794H8.13432631v-3.427617H40.7618319v3.427617zm5.038697-5.5657016H3.59966592v-9.8928173c.00167038-1.7706014 1.43652562-3.205039 3.20712695-3.207127H42.593402c1.7701837.002088 3.205039 1.4365256 3.2071269 3.207127v9.8928173z"/><path d="M10.6227729 28.0193485c-.5904789 0-1.06904233.4785636-1.06904233 1.0690423v4.0302061c0 .5904788.47856343 1.0690423 1.06904233 1.0690423.5904788 0 1.0690423-.4785635 1.0690423-1.0690423v-4.0302061c0-.5904787-.4785635-1.0690423-1.0690423-1.0690423zM37.0264476 27.3390869c-1.9263641 0-3.4877505 1.5613864-3.4877505 3.4873329 0 1.9263642 1.5613864 3.4877506 3.4877505 3.4877506 1.883352 0 3.4150891-1.5146158 3.4864979-3.4480791 0-.0133631.0008351-.0263084.0008351-.0396715-.0020879-1.9251114-1.5622216-3.485245-3.487333-3.4873329zm0 4.8369989c-.7429008 0-1.3459075-.6000835-1.3496659-1.3429844-.0033408-.742901.5938196-1.3488308 1.3367206-1.3559299.7424832-.0070991 1.3513363.587138 1.3621937 1.3300389-.0384187.7692094-.6272272 1.3692929-1.3492484 1.3692929v-.0004175zM16.8520323 28.0193485c-.5900612 0-1.0690423.4785636-1.0690423 1.0690423v4.0302061c0 .5904788.4789811 1.0690423 1.0690423 1.0690423.5904788 0 1.0690423-.4785635 1.0690423-1.0690423v-4.0302061c0-.5904787-.4785635-1.0690423-1.0690423-1.0690423zM7.53257244 11.4896993c.43262795 0 .82224385-.2605791.9880289-.6597995.16536748-.3996381.07391422-.85940982-.23218263-1.16550668-1.49707681-1.50459357-1.49707681-3.93624727 0-5.4412584.27686528-.26851329.38794541-.66564583.28981074-1.03855794-.09813477-.37332956-.38961589-.66481069-.76252789-.76252778-.37332957-.09813477-.77046211.01252789-1.0389755.28939307-2.33184855 2.33978287-2.33184855 6.12527839 0 8.46506123.20044543.200863.47229958.3136137.75584638.313196z"/><path d="M3.44515585 13.7568207c.43262817 0 .82224395-.260579.98761144-.6597995.16578505-.3996381.07433179-.8594099-.23176506-1.1650892-2.75612472-2.75654224-2.75361921-7.27950998.00584627-10.08282287.27268939-.27143658.37834081-.66815145.27728285-1.0389755-.10147542-.37082405-.39379168-.65896442-.76628611-.7541759-.37249443-.09521168-.76753903.0167038-1.03438204.2931514C-.89657575 3.98635852-.89407013 9.860245 2.68930958 13.4436247c.20002786.200863.47229958.3136136.75584627.313196z"/></g></g></svg>