<?xml version="1.0" encoding="UTF-8"?><svg width="48px" height="48px" viewBox="0 0 48 48" xmlns="http://www.w3.org/2000/svg" xmlns:xlink="http://www.w3.org/1999/xlink"><g transform="translate(-2 -4)" fill="none" fill-rule="evenodd"><circle fill="none" cx="26" cy="26" r="26"/><g fill="#333" fill-rule="nonzero"><path d="M27.1020169 21.0241145c0-1.6451025-1.3731398-2.9832982-3.0612006-2.9832982s-3.0612005 1.3381957-3.0612005 2.9832982v12.3012571c-.653662.7244753-1.0204321 1.6547982-1.0204321 2.6152338 0 2.1937496 1.8315545 3.9777619 4.0816326 3.9777619 2.2500781 0 4.0816327-1.783919 4.0816327-3.9777619 0-.9604356-.3666745-1.8907585-1.0204321-2.6152338V21.0241145zM24.0408163 37.929533c-1.1260435 0-2.0407685-.8924723-2.0407685-1.9888344 0-.5613262.2431742-1.0837763.6836044-1.4712321.2152406-.188414.3368277-.4564447.3368277-.7380867V21.0241145c0-.5486472.4584148-.9944638 1.0204321-.9944638s1.0204321.4457234 1.0204321.9944638v12.7071721c0 .281642.121587.5496727.3368277.7380866.4404302.3874559.6836043.909906.6836043 1.4712322-.0001913 1.0964553-.9150119 1.9889276-2.0409598 1.9889276z"/><path d="M45.9999502 29.9999072h-4.0000498v-4.0000254h3.0312328c.4081894 0 .7773786-.2489996.9277543-.628874.1523445-.3798745.058594-.8134676-.2383136-1.0957484L24.6893515 4.27541366c-.3867206-.36721821-.9921609-.36721821-1.3788814 0L2.31037278 24.2753531c-.29690763.2821871-.39065806.7168115-.2383136 1.0957484.15037569.3798745.5195649.6288741.92775429.6288741h3.0000139V44.999979c0 .5527492.44728332 1.0000298 1.00003588 1.0000298H34.2840522C35.1783376 49.440535 38.282602 52 41.9999942 52 46.4121709 52 50 48.4111615 50 44.000043V33.9999326c0-2.206028-1.7949458-4.0000254-4.0000498-4.0000254zm-12.0000556 4.0000254v10.0000166H7.99980539V24.9999458c0-.5527492-.44728332-1.0000298-1.00003589-1.0000298H5.49976255L23.9999108 6.38084807 42.5293091 24.0000098h-1.5293508c-.5527526 0-1.0000359.4472806-1.0000359 1.0000298v4.9999614h-1.999978c-2.205104-.0000938-4.0000498 1.7939036-4.0000498 3.9999316zM48.000022 43.9999492c0 3.3086202-2.6913875 5.9999912-6.0000278 5.9999912s-6.0000278-2.691371-6.0000278-5.9999912V33.9999326c0-1.1024984.8965354-1.9999658 1.999978-1.9999658h8.0000058c1.1035364 0 1.999978.8974674 1.999978 1.9999658v10.0000166h.0000938z"/><path d="M43.7959184 36h-.9795919v-.9795918c0-.5414525-.4381393-.9795919-.9795918-.9795919s-.9795918.4381394-.9795918.9795919V36h-.9795919c-.5414524 0-.9795918.4381394-.9795918.9795918 0 .5414525.4381394.9795919.9795918.9795919h.9795919v.9795918c0 .5414525.4381393.9795918.9795918.9795918s.9795918-.4381393.9795918-.9795918v-.9795918h.9795919c.5414524 0 .9795918-.4381394.9795918-.9795919 0-.5414524-.4381394-.9795918-.9795918-.9795918zM43.7959031 43.8367347h-3.9183368c-.5414609 0-.9796071.4381394-.9796071.9795918 0 .5414525.4381462.9795919.9796071.9795919h3.9183368c.5414609 0 .9796071-.4381394.9796071-.9795919 0-.5414524-.4381462-.9795918-.9796071-.9795918z"/></g></g></svg>